<?xml version="1.0" encoding="utf-8"?>
<!-- Generator: Adobe Illustrator 24.2.3, SVG Export Plug-In . SVG Version: 6.00 Build 0)  -->
<svg version="1.1" id="Ebene_1" xmlns="http://www.w3.org/2000/svg" xmlns:xlink="http://www.w3.org/1999/xlink" x="0px" y="0px"
	 viewBox="0 0 841.89 841.89" style="enable-background:new 0 0 841.89 841.89;" xml:space="preserve">
<style type="text/css">
	.st0{fill:#F9B233;stroke:#000000;stroke-width:8.5039;stroke-miterlimit:10;}
	.st1{fill:none;}
	.st2{fill:#FFFFFF;stroke:#000000;stroke-width:8.5039;stroke-miterlimit:10;}
</style>
<circle class="st0" cx="410.88" cy="410.68" r="178.9"/>
<g>
	<rect x="283.58" y="297.25" class="st1" width="255.77" height="230.61"/>
	<path class="st2" d="M472.88,431.78c-0.89-24.11-1.79-53.28-1.79-82.45h-0.89c-6.25,25.6-14.58,54.17-22.32,77.68l-24.41,78.28
		h-35.42l-21.43-77.68c-6.55-23.51-13.39-52.09-18.16-78.28h-0.6c-1.19,27.08-2.08,58.04-3.57,83.04l-3.57,76.2h-41.97l12.8-200.61
		h60.42l19.64,66.97c6.25,23.22,12.5,48.22,16.97,71.73h0.89c5.66-23.22,12.5-49.71,19.05-72.03l21.43-66.67h59.23l11.01,200.61
		h-44.35L472.88,431.78z"/>
</g>
<g>
</g>
<g>
</g>
<g>
</g>
<g>
</g>
<g>
</g>
<g>
</g>
</svg>
